<?xml version="1.0" encoding="utf-8"?>
<!-- Generator: Adobe Illustrator 25.4.1, SVG Export Plug-In . SVG Version: 6.00 Build 0)  -->
<svg version="1.1" id="Layer_1" xmlns="http://www.w3.org/2000/svg" xmlns:xlink="http://www.w3.org/1999/xlink" x="0px" y="0px"
	 viewBox="0 0 694 693.7" style="enable-background:new 0 0 694 693.7;" xml:space="preserve">
<style type="text/css">
	.st0{fill:#FFFFFF;}
</style>
<g>
	<path class="st0" d="M347.7,693.7C158.6,694.9,4,542.6,0.1,354.5C-4,158.9,153.7-0.6,347.8,0c189.4,0.6,339.4,151.2,345.9,334
		C701,534.7,538.7,694.8,347.7,693.7z M312.7,275.8c0.6,1.4,1,2.2,1.2,2.9c9.4,33.2,22.9,64.6,42.5,93.1c1.8,2.6,1.8,5.2,1.3,8.1
		c-7.6,43.2-15.2,86.5-22.9,129.7c-0.7,4.1,0.6,5,4.2,5c12-0.1,24-0.1,35.9,0c3.4,0,5.2-1.2,5.7-4.7c1.6-10.5,3.4-21,5.1-31.5
		c3.1-19.2,6.2-38.4,9.4-57.6c0.8-5.1,1.3-5.1,5.4-2.2c4.9,3.4,9.7,7,14.9,9.9c35.9,20,72.3,21.1,107.8,0.1
		c50.6-30,59.4-92.9,37.4-137.3c-18.7-37.8-61.4-59.8-103.6-54.5c-43.2,5.4-71.1,28.8-84.7,69.8c-0.5,1.5-0.2,3.9-2.1,4
		c-1.8,0-2-2.4-2.7-3.8c-9-18.9-14.9-38.8-20-59c-1.1-4.3-3-5.9-7.5-5.9c-22,0.2-43.9,0.1-65.9,0.1c-6.9,0-6.9,0-6.9,7
		c0,30.5,0,60.9,0,91.4c0,11.2-1.7,22.2-5.8,32.7c-4.4,11.4-11.6,20.6-22.8,26c-24.3,11.9-53.1,0.9-64.6-24.8
		c-5.7-12.7-6.9-26.3-6.8-40c0.2-28.9,0.5-57.9,0.9-86.8c0.1-4.1-1.3-5.6-5.4-5.5c-11.3,0.2-22.6,0.3-33.9,0
		c-4.8-0.1-6.2,1.5-6.2,6.3c0.2,29.5,0.1,58.9,0.1,88.4c0,8.7,0.5,17.3,2,25.8c4.1,23.1,13.9,43.2,31.8,59
		c15.2,13.4,33.1,20.3,53.1,21.7c32.5,2.4,60.1-7.7,80.7-33.7c14.7-18.6,20.9-40.3,21.6-63.6c0.6-21.3,0.1-42.6,0.2-63.9
		C311.7,280.1,311.3,278.2,312.7,275.8z"/>
	<path class="st0" d="M527,341c-0.7,19.5-6.6,37.7-23.4,50.9c-13.7,10.7-29.4,13.7-46.2,10.5c-21.8-4.2-38.4-16.7-51.5-34.3
		c-1.1-1.5-2-3.1-1.7-5c3-20.7,7-41,17.9-59.3c12.3-20.7,30.9-29.4,54.3-26.7c22.3,2.6,37.3,15.6,45.7,36.2
		C525.5,321.8,526.8,330.8,527,341z"/>
</g>
</svg>
