<svg id="Layer_1" data-name="Layer 1" xmlns="http://www.w3.org/2000/svg" viewBox="0 0 548.27 59.03"><defs><style>.cls-1{fill:#fff;}</style></defs><path class="cls-1" d="M85.48,1.6H73.71a3.84,3.84,0,0,0-2.55.71,2.5,2.5,0,0,0-.84,2,2.64,2.64,0,0,0,.4,1.47,3,3,0,0,0,1.24,1l1,.44a3.88,3.88,0,0,1,2.31,2.19,5.88,5.88,0,0,1-.12,3.35l-7.7,27.9-8.1-29.13a6.63,6.63,0,0,1-.32-3,1.69,1.69,0,0,1,1.2-1.2l1.12-.4a3.32,3.32,0,0,0,1.51-1,2.55,2.55,0,0,0,.48-1.59,2.52,2.52,0,0,0-.82-2,3.81,3.81,0,0,0-2.57-.71H38.45a3.84,3.84,0,0,0-2.55.71,2.5,2.5,0,0,0-.84,2,2.46,2.46,0,0,0,.4,1.45,2.91,2.91,0,0,0,1.32,1l1.39.6a2.24,2.24,0,0,1,1.06.88,12.26,12.26,0,0,1,.94,2.55l1.33,4.69-8,25.25L25,11.49a6.18,6.18,0,0,1-.3-2.87,1.72,1.72,0,0,1,1.22-1.4l1.31-.44A2.45,2.45,0,0,0,29,4.27a2.46,2.46,0,0,0-.82-2,3.81,3.81,0,0,0-2.57-.71H3.35a3.75,3.75,0,0,0-2.53.71,2.46,2.46,0,0,0-.82,2A3.5,3.5,0,0,0,.38,5.88,2.3,2.3,0,0,0,1.64,7l1.43.6a4.41,4.41,0,0,1,1.62,1.1,5.29,5.29,0,0,1,1,2.09L17.35,49.86c.27.9.44,1.56.52,2A7.6,7.6,0,0,1,18,53.25v1.6a2.42,2.42,0,0,0,.74,1.93,2.67,2.67,0,0,0,1.85.66H34.42a2.63,2.63,0,0,0,1.82-.66A2.46,2.46,0,0,0,37,54.85v-1.6a13.23,13.23,0,0,1,.2-2.53,14.79,14.79,0,0,1,.59-2.18l6.86-22.09L51.3,49.86c.29,1,.47,1.65.55,2.07A7.2,7.2,0,0,1,52,53.25v1.6a2.46,2.46,0,0,0,.74,1.93,2.63,2.63,0,0,0,1.82.66h14.2a2.62,2.62,0,0,0,1.81-.66,2.46,2.46,0,0,0,.74-1.93v-1.6a11.38,11.38,0,0,1,.16-2c.11-.6.32-1.49.64-2.66l9.41-35a11.76,11.76,0,0,1,1.72-4A7,7,0,0,1,85.72,7.5l1.12-.56A4.28,4.28,0,0,0,88.43,5.8a2.4,2.4,0,0,0,.44-1.49,2.52,2.52,0,0,0-.82-2A3.81,3.81,0,0,0,85.48,1.6Z"/><path class="cls-1" d="M157.2,37.89a3.84,3.84,0,0,0-2.3.22,3.41,3.41,0,0,0-1.61,1.74,38.75,38.75,0,0,1-4.39,7.44,11.3,11.3,0,0,1-4.37,3.51,14,14,0,0,1-5.28.93h-1.88a4.73,4.73,0,0,1-3.49-1.21,5,5,0,0,1-1.21-3.65v-15h4.22a12.88,12.88,0,0,1,3.37.36,5.88,5.88,0,0,1,2.36,1.31,16.71,16.71,0,0,1,2.33,2.8,3,3,0,0,0,1.66,1.27,3.3,3.3,0,0,0,2.09-.12,2.43,2.43,0,0,0,1.54-1.25,3.73,3.73,0,0,0,0-2.34l-3.11-12.56A2.62,2.62,0,0,0,144.47,19a2.78,2.78,0,0,0-1.75.59,3.8,3.8,0,0,0-1.16,2,8.72,8.72,0,0,1-1.89,3.77,5.17,5.17,0,0,1-3.53,1h-3.47V7.3h5.38a15.34,15.34,0,0,1,3.81.44,9.52,9.52,0,0,1,3.23,1.55,15.2,15.2,0,0,1,3,3.13,42.87,42.87,0,0,1,3.23,5.17,4.08,4.08,0,0,0,1.86,1.88,3.36,3.36,0,0,0,2.57,0,2.76,2.76,0,0,0,1.68-1.4,3.36,3.36,0,0,0,0-2.39L154.09,4.47a8.72,8.72,0,0,0-1.6-3.29,3.46,3.46,0,0,0-2.71-1,7.57,7.57,0,0,0-2.45.36c-.71.24-1.46.48-2.26.72a10.74,10.74,0,0,1-3,.36H112a3.91,3.91,0,0,0-2.59.71,2.5,2.5,0,0,0-.84,2,3,3,0,0,0,2.08,3l1.51.56a3.54,3.54,0,0,1,1.54,1,2.55,2.55,0,0,1,.5,1.62V48.58a2.51,2.51,0,0,1-.5,1.62,3.64,3.64,0,0,1-1.54,1l-1.51.55a3,3,0,0,0-2.08,3,2.49,2.49,0,0,0,.84,2,3.85,3.85,0,0,0,2.59.74h31.76a10.94,10.94,0,0,1,3.05.36c.81.24,1.55.48,2.23.72a7,7,0,0,0,2.25.35,3.7,3.7,0,0,0,2.9-1,8.55,8.55,0,0,0,1.57-3.25l3.71-12.85a3,3,0,0,0-.2-2.53A2.94,2.94,0,0,0,157.2,37.89Z"/><path class="cls-1" d="M226.24,36.7a3.25,3.25,0,0,0-2.35.06,3.64,3.64,0,0,0-1.72,1.85L219.5,44.2a21.12,21.12,0,0,1-2.87,4.72,7.52,7.52,0,0,1-3,2.22,10.35,10.35,0,0,1-3.69.59H206.9a3.54,3.54,0,0,1-2.28-.65,2.91,2.91,0,0,1-.79-2.34V10.45a2.49,2.49,0,0,1,.51-1.62,3.71,3.71,0,0,1,1.52-1l1.52-.56a2.94,2.94,0,0,0,2.07-2.95,2.5,2.5,0,0,0-.84-2A3.91,3.91,0,0,0,206,1.6h-22.9a3.91,3.91,0,0,0-2.59.71,2.5,2.5,0,0,0-.84,2,2.93,2.93,0,0,0,2.08,3l1.51.56a3.54,3.54,0,0,1,1.54,1,2.55,2.55,0,0,1,.5,1.62V48.58a2.51,2.51,0,0,1-.5,1.62,3.64,3.64,0,0,1-1.54,1l-1.51.55a3,3,0,0,0-2.08,3,2.49,2.49,0,0,0,.84,2,3.85,3.85,0,0,0,2.59.74h29.16a11.82,11.82,0,0,1,3.13.36c.87.24,1.64.48,2.34.72a6.52,6.52,0,0,0,2.07.35,3.69,3.69,0,0,0,2.87-1,8.4,8.4,0,0,0,1.6-3.25l4-14.08a3.11,3.11,0,0,0-.12-2.48A3.16,3.16,0,0,0,226.24,36.7Z"/><path class="cls-1" d="M298.88,39.05a2.63,2.63,0,0,0-1.76.2,3.75,3.75,0,0,0-1.47,1.67,16.38,16.38,0,0,1-5.75,6.29,14.88,14.88,0,0,1-16-.4,16.46,16.46,0,0,1-5.65-7.62,34.56,34.56,0,0,1-2-12.7,38.34,38.34,0,0,1,.84-8.4,21.2,21.2,0,0,1,2.43-6.36,11.59,11.59,0,0,1,3.89-4,9.81,9.81,0,0,1,5.2-1.4A14.4,14.4,0,0,1,284,7.36a14,14,0,0,1,5.08,3.71,25.82,25.82,0,0,1,4.47,7.44,3.4,3.4,0,0,0,1.72,1.89,3.75,3.75,0,0,0,2.47.18,3.15,3.15,0,0,0,1.9-1.29,2.56,2.56,0,0,0,.29-2.22L295.85,3A4.92,4.92,0,0,0,294.75.8a2.27,2.27,0,0,0-1.66-.64,3.14,3.14,0,0,0-2,.6c-.52.4-1,.8-1.52,1.21a2.8,2.8,0,0,1-1.89.62,5.77,5.77,0,0,1-2.39-.66A25.12,25.12,0,0,0,281.63.64a22.87,22.87,0,0,0-6-.64,26.87,26.87,0,0,0-19.88,8.5A28.56,28.56,0,0,0,249.82,18,32.34,32.34,0,0,0,247.7,29.8,31.5,31.5,0,0,0,251.25,45,25.67,25.67,0,0,0,261.32,55.3,30.59,30.59,0,0,0,276.78,59a29.89,29.89,0,0,0,9.89-1.53,24.1,24.1,0,0,0,7.5-4.11,19.25,19.25,0,0,0,4.77-5.68,13.3,13.3,0,0,0,1.65-6.27,2.89,2.89,0,0,0-.4-1.61A1.85,1.85,0,0,0,298.88,39.05Z"/><path class="cls-1" d="M372.63,8.22a26.17,26.17,0,0,0-9.39-6.09A34.62,34.62,0,0,0,350.73,0a32,32,0,0,0-12.26,2.23,26.76,26.76,0,0,0-9.28,6.23,27.37,27.37,0,0,0-5.86,9.29,31.53,31.53,0,0,0-2,11.41,34.58,34.58,0,0,0,2.06,12.22,26.6,26.6,0,0,0,5.94,9.44,26.27,26.27,0,0,0,9.42,6.08A34.38,34.38,0,0,0,351.17,59a32.05,32.05,0,0,0,12.27-2.23,26.69,26.69,0,0,0,9.27-6.22,27.41,27.41,0,0,0,5.86-9.3,31.48,31.48,0,0,0,2-11.4,34.63,34.63,0,0,0-2.06-12.23A26.57,26.57,0,0,0,372.63,8.22ZM360.84,47.75A9.08,9.08,0,0,1,358.67,52,4.92,4.92,0,0,1,355,53.41,6,6,0,0,1,351,51.48,21.73,21.73,0,0,1,347,46.15a45.84,45.84,0,0,1-3.35-7.86,64.69,64.69,0,0,1-2.33-9.59,63.58,63.58,0,0,1-.86-10.47,27.69,27.69,0,0,1,.74-6.94,9.09,9.09,0,0,1,2.19-4.23A4.94,4.94,0,0,1,347,5.62a6.05,6.05,0,0,1,4.09,1.94A21.66,21.66,0,0,1,355,12.88a45.84,45.84,0,0,1,3.35,7.86,65,65,0,0,1,2.33,9.59,63.58,63.58,0,0,1,.86,10.47A27.83,27.83,0,0,1,360.84,47.75Z"/><path class="cls-1" d="M473.86,51.77l-1.51-.55a2.83,2.83,0,0,1-1.42-1,4.26,4.26,0,0,1-.5-2.08L467.92,11a3.69,3.69,0,0,1,.34-2.08,3.06,3.06,0,0,1,1.66-1.11l1.51-.56a3.21,3.21,0,0,0,1.5-1.1,3,3,0,0,0,.54-1.85,2.5,2.5,0,0,0-.84-2A3.94,3.94,0,0,0,470,1.6H454.56a6.69,6.69,0,0,0-4.17,1.15A9.47,9.47,0,0,0,447.74,7l-8.93,24.14L429.35,6.86a9.15,9.15,0,0,0-2.73-4.23,6.86,6.86,0,0,0-4-1H407.33q-3.43,0-3.43,2.71a3,3,0,0,0,.52,1.83A3.34,3.34,0,0,0,406,7.26l1.51.56a2.83,2.83,0,0,1,1.72,1.55,8,8,0,0,1,.23,3.43l-2.71,33.91a5,5,0,0,1-1.05,2.91,6.62,6.62,0,0,1-2.14,1.64l-.84.39A6.1,6.1,0,0,0,401,52.83a2.6,2.6,0,0,0-.64,1.9,2.51,2.51,0,0,0,.82,2,3.76,3.76,0,0,0,2.57.74h11.77a3.61,3.61,0,0,0,2.57-.78,2.68,2.68,0,0,0,.82-2,2.83,2.83,0,0,0-.38-1.52,2.74,2.74,0,0,0-1.06-1l-1.11-.63a10.81,10.81,0,0,1-2.46-1.84,3.56,3.56,0,0,1-.82-2.91l2.13-26.51L427.51,51.3a13.85,13.85,0,0,0,1.78,3.37A3.71,3.71,0,0,0,431.12,56a7.83,7.83,0,0,0,2.18.28,4.7,4.7,0,0,0,2.81-.84c.78-.55,1.55-1.84,2.29-3.86l11.66-31.51,2.11,28.07a3.46,3.46,0,0,1-.34,2,3.16,3.16,0,0,1-1.62,1.1l-1.56.55A2.94,2.94,0,0,0,447,52.93a3.4,3.4,0,0,0-.46,1.8,2.49,2.49,0,0,0,.84,2,3.91,3.91,0,0,0,2.63.74h22.26a3.56,3.56,0,0,0,2.59-.82,2.74,2.74,0,0,0,.84-2,3.11,3.11,0,0,0-.48-1.76A2.68,2.68,0,0,0,473.86,51.77Z"/><path class="cls-1" d="M547.9,39.19a3,3,0,0,0-2-1.3,3.8,3.8,0,0,0-2.29.22A3.38,3.38,0,0,0,542,39.85a38.24,38.24,0,0,1-4.39,7.44,11.28,11.28,0,0,1-4.36,3.51,14,14,0,0,1-5.29.93H526a4.72,4.72,0,0,1-3.49-1.21,4.92,4.92,0,0,1-1.22-3.65v-15h4.23a13,13,0,0,1,3.37.36,5.84,5.84,0,0,1,2.35,1.31,16.7,16.7,0,0,1,2.34,2.8,3,3,0,0,0,1.65,1.27,3.3,3.3,0,0,0,2.09-.12,2.38,2.38,0,0,0,1.54-1.25,3.73,3.73,0,0,0,0-2.34l-3.11-12.56A2.61,2.61,0,0,0,533.14,19a2.81,2.81,0,0,0-1.76.59,3.79,3.79,0,0,0-1.15,2,8.72,8.72,0,0,1-1.9,3.77,5.14,5.14,0,0,1-3.53,1h-3.47V7.3h5.39a15.31,15.31,0,0,1,3.8.44,9.65,9.65,0,0,1,3.24,1.55,15.2,15.2,0,0,1,3,3.13A44.17,44.17,0,0,1,540,17.59a4.06,4.06,0,0,0,1.85,1.88,3.38,3.38,0,0,0,2.58,0,2.74,2.74,0,0,0,1.67-1.4,3.36,3.36,0,0,0,0-2.39L542.75,4.47a8.44,8.44,0,0,0-1.6-3.29,3.45,3.45,0,0,0-2.71-1A7.57,7.57,0,0,0,536,.52q-1.07.36-2.25.72a10.76,10.76,0,0,1-3,.36H500.63a3.89,3.89,0,0,0-2.59.71,2.5,2.5,0,0,0-.84,2,2.94,2.94,0,0,0,2.07,3l1.52.56a3.5,3.5,0,0,1,1.53,1,2.49,2.49,0,0,1,.5,1.62V48.58a2.45,2.45,0,0,1-.5,1.62,3.6,3.6,0,0,1-1.53,1l-1.52.55a3,3,0,0,0-2.07,3,2.49,2.49,0,0,0,.84,2,3.83,3.83,0,0,0,2.59.74h31.75a10.94,10.94,0,0,1,3,.36c.81.24,1.56.48,2.23.72a7,7,0,0,0,2.26.35,3.68,3.68,0,0,0,2.89-1,8.69,8.69,0,0,0,1.58-3.25l3.71-12.85A3,3,0,0,0,547.9,39.19Z"/></svg>