<?xml version="1.0" encoding="utf-8"?>
<!-- Generator: Adobe Illustrator 25.4.1, SVG Export Plug-In . SVG Version: 6.00 Build 0)  -->
<svg version="1.1" id="Layer_1" xmlns="http://www.w3.org/2000/svg" xmlns:xlink="http://www.w3.org/1999/xlink" x="0px" y="0px"
	 viewBox="0 0 548.3 59" style="enable-background:new 0 0 548.3 59;" xml:space="preserve">
<style type="text/css">
	.st0{fill:#FFFFFF;}
</style>
<g>
	<path class="st0" d="M85.5,1.6H73.7c-1.1,0-2,0.2-2.6,0.7c-0.6,0.5-0.8,1.1-0.8,2c0,0.6,0.1,1.1,0.4,1.5c0.3,0.4,0.7,0.7,1.2,1
		l1,0.4c1.2,0.6,2,1.3,2.3,2.2c0.3,0.9,0.3,2-0.1,3.4l-7.7,27.9l-8.1-29.1c-0.4-1.4-0.5-2.4-0.3-3c0.2-0.6,0.6-1,1.2-1.2l1.1-0.4
		c0.7-0.3,1.2-0.6,1.5-1c0.3-0.4,0.5-1,0.5-1.6c0-0.9-0.3-1.5-0.8-2c-0.5-0.5-1.4-0.7-2.6-0.7H38.5c-1.1,0-2,0.2-2.6,0.7
		c-0.6,0.5-0.8,1.1-0.8,2c0,0.6,0.1,1.1,0.4,1.5c0.3,0.4,0.7,0.7,1.3,1l1.4,0.6c0.5,0.2,0.8,0.5,1.1,0.9c0.3,0.4,0.6,1.3,0.9,2.6
		l1.3,4.7l-8,25.3L25,11.5c-0.3-1.2-0.4-2.2-0.3-2.9c0.1-0.7,0.6-1.2,1.2-1.4l1.3-0.4C28.4,6.4,29,5.5,29,4.3c0-0.8-0.3-1.5-0.8-2
		c-0.5-0.5-1.4-0.7-2.6-0.7H3.4c-1.1,0-2,0.2-2.5,0.7C0.3,2.8,0,3.4,0,4.3c0,0.6,0.1,1.1,0.4,1.6C0.6,6.4,1.1,6.7,1.6,7l1.4,0.6
		c0.7,0.3,1.2,0.7,1.6,1.1c0.4,0.4,0.7,1.1,1,2.1l11.7,39.1c0.3,0.9,0.4,1.6,0.5,2c0.1,0.4,0.1,0.9,0.1,1.4v1.6
		c0,0.9,0.2,1.5,0.7,1.9c0.5,0.4,1.1,0.7,1.9,0.7h13.8c0.7,0,1.3-0.2,1.8-0.7c0.5-0.4,0.7-1.1,0.7-1.9v-1.6c0-1,0.1-1.8,0.2-2.5
		c0.1-0.7,0.3-1.4,0.6-2.2l6.9-22.1l6.7,23.4c0.3,1,0.5,1.6,0.6,2.1c0.1,0.4,0.1,0.9,0.1,1.3v1.6c0,0.9,0.2,1.5,0.7,1.9
		c0.5,0.4,1.1,0.7,1.8,0.7h14.2c0.7,0,1.3-0.2,1.8-0.7c0.5-0.4,0.7-1.1,0.7-1.9v-1.6c0-0.8,0.1-1.5,0.2-2.1c0.1-0.6,0.3-1.5,0.6-2.7
		l9.4-35c0.5-1.8,1-3.1,1.7-4c0.7-0.9,1.5-1.6,2.5-2.1l1.1-0.6c0.8-0.4,1.3-0.8,1.6-1.1c0.3-0.4,0.4-0.9,0.4-1.5
		c0-0.9-0.3-1.5-0.8-2C87.5,1.8,86.6,1.6,85.5,1.6z"/>
	<path class="st0" d="M157.2,37.9c-0.9-0.2-1.6-0.1-2.3,0.2c-0.7,0.3-1.2,0.9-1.6,1.7c-1.5,3.2-3,5.7-4.4,7.4
		c-1.4,1.7-2.8,2.9-4.4,3.5c-1.5,0.6-3.3,0.9-5.3,0.9h-1.9c-1.5,0-2.7-0.4-3.5-1.2c-0.8-0.8-1.2-2-1.2-3.6v-15h4.2
		c1.4,0,2.5,0.1,3.4,0.4c0.9,0.2,1.6,0.7,2.4,1.3c0.7,0.6,1.5,1.6,2.3,2.8c0.5,0.7,1,1.1,1.7,1.3c0.7,0.2,1.3,0.1,2.1-0.1
		c0.8-0.3,1.3-0.7,1.5-1.3c0.3-0.6,0.3-1.3,0-2.3l-3.1-12.6c-0.4-1.6-1.3-2.4-2.7-2.4c-0.7,0-1.3,0.2-1.8,0.6
		c-0.5,0.4-0.9,1.1-1.2,2c-0.6,1.9-1.2,3.1-1.9,3.8c-0.7,0.7-1.9,1-3.5,1h-3.5v-19h5.4c1.4,0,2.7,0.1,3.8,0.4
		c1.1,0.3,2.2,0.8,3.2,1.6c1,0.7,2,1.8,3.1,3.1c1,1.3,2.1,3.1,3.2,5.2c0.5,0.9,1.1,1.5,1.9,1.9s1.6,0.3,2.6,0
		c0.8-0.3,1.4-0.8,1.7-1.4c0.3-0.6,0.3-1.4,0-2.4l-3.4-11.2c-0.5-1.5-1-2.6-1.6-3.3c-0.6-0.7-1.5-1-2.7-1c-0.9,0-1.7,0.1-2.5,0.4
		c-0.7,0.2-1.5,0.5-2.3,0.7s-1.8,0.4-3,0.4H112c-1.2,0-2,0.2-2.6,0.7c-0.6,0.5-0.8,1.1-0.8,2c0,1.4,0.7,2.4,2.1,3l1.5,0.6
		c0.7,0.3,1.2,0.6,1.5,1c0.3,0.4,0.5,1,0.5,1.6v38.1c0,0.7-0.2,1.2-0.5,1.6c-0.3,0.4-0.8,0.8-1.5,1l-1.5,0.6c-1.4,0.5-2.1,1.5-2.1,3
		c0,0.8,0.3,1.5,0.8,2c0.6,0.5,1.4,0.7,2.6,0.7h31.8c1.2,0,2.2,0.1,3.1,0.4c0.8,0.2,1.6,0.5,2.2,0.7c0.7,0.2,1.4,0.4,2.3,0.4
		c1.3,0,2.3-0.4,2.9-1.1c0.6-0.7,1.1-1.8,1.6-3.3l3.7-12.8c0.3-1,0.2-1.9-0.2-2.5C158.8,38.5,158.1,38.1,157.2,37.9z"/>
	<path class="st0" d="M226.2,36.7c-0.9-0.3-1.7-0.2-2.4,0.1c-0.7,0.3-1.3,0.9-1.7,1.9l-2.7,5.6c-1,2.1-1.9,3.7-2.9,4.7
		c-0.9,1.1-1.9,1.8-3,2.2c-1.1,0.4-2.3,0.6-3.7,0.6h-3.1c-1,0-1.7-0.2-2.3-0.7c-0.5-0.4-0.8-1.2-0.8-2.3V10.5c0-0.7,0.2-1.2,0.5-1.6
		c0.3-0.4,0.9-0.8,1.5-1l1.5-0.6c1.4-0.5,2.1-1.5,2.1-3c0-0.9-0.3-1.5-0.8-2c-0.6-0.5-1.4-0.7-2.6-0.7h-22.9c-1.2,0-2,0.2-2.6,0.7
		c-0.6,0.5-0.8,1.1-0.8,2c0,1.4,0.7,2.4,2.1,3l1.5,0.6c0.7,0.3,1.2,0.6,1.5,1c0.3,0.4,0.5,1,0.5,1.6v38.1c0,0.7-0.2,1.2-0.5,1.6
		c-0.3,0.4-0.8,0.8-1.5,1l-1.5,0.6c-1.4,0.5-2.1,1.5-2.1,3c0,0.8,0.3,1.5,0.8,2c0.6,0.5,1.4,0.7,2.6,0.7h29.2c1.2,0,2.3,0.1,3.1,0.4
		c0.9,0.2,1.6,0.5,2.3,0.7c0.7,0.2,1.4,0.4,2.1,0.4c1.3,0,2.2-0.4,2.9-1.1s1.2-1.8,1.6-3.3l4-14.1c0.3-1,0.3-1.9-0.1-2.5
		C227.8,37.4,227.1,37,226.2,36.7z"/>
	<path class="st0" d="M298.9,39c-0.6-0.1-1.2-0.1-1.8,0.2c-0.5,0.3-1,0.8-1.5,1.7c-1.5,2.8-3.4,4.9-5.7,6.3
		c-2.3,1.4-4.9,2.1-7.6,2.1c-3.2,0-6-0.8-8.4-2.5c-2.4-1.7-4.3-4.2-5.6-7.6c-1.4-3.4-2-7.6-2-12.7c0-3.1,0.3-5.9,0.8-8.4
		c0.6-2.5,1.4-4.6,2.4-6.4c1.1-1.8,2.4-3.1,3.9-4c1.5-0.9,3.3-1.4,5.2-1.4c1.8,0,3.6,0.4,5.4,1.1c1.8,0.7,3.5,1.9,5.1,3.7
		c1.6,1.8,3.1,4.2,4.5,7.4c0.4,0.9,1,1.6,1.7,1.9c0.7,0.3,1.6,0.4,2.5,0.2c0.8-0.2,1.5-0.6,1.9-1.3c0.4-0.7,0.5-1.4,0.3-2.2L295.8,3
		c-0.3-1-0.7-1.7-1.1-2.2c-0.4-0.4-1-0.6-1.7-0.6c-0.8,0-1.5,0.2-2,0.6s-1,0.8-1.5,1.2c-0.5,0.4-1.1,0.6-1.9,0.6
		c-0.7,0-1.5-0.2-2.4-0.7c-0.9-0.4-2.2-0.9-3.7-1.3c-1.5-0.4-3.5-0.6-6-0.6c-3.9,0-7.6,0.7-11,2.2c-3.4,1.5-6.4,3.6-8.9,6.3
		c-2.5,2.7-4.5,5.8-5.9,9.5c-1.4,3.6-2.1,7.6-2.1,11.8c0,5.7,1.2,10.8,3.6,15.2c2.4,4.4,5.7,7.8,10.1,10.3c4.3,2.5,9.5,3.7,15.5,3.7
		c3.7,0,7-0.5,9.9-1.5c2.9-1,5.4-2.4,7.5-4.1c2.1-1.7,3.7-3.6,4.8-5.7s1.7-4.2,1.7-6.3c0-0.7-0.1-1.2-0.4-1.6S299.5,39.2,298.9,39z"
		/>
	<path class="st0" d="M372.6,8.2c-2.6-2.6-5.7-4.7-9.4-6.1c-3.7-1.4-7.9-2.1-12.5-2.1c-4.5,0-8.6,0.7-12.3,2.2
		c-3.6,1.5-6.7,3.6-9.3,6.2c-2.6,2.7-4.5,5.8-5.9,9.3c-1.4,3.5-2,7.3-2,11.4c0,4.5,0.7,8.6,2.1,12.2c1.4,3.7,3.4,6.8,5.9,9.4
		c2.6,2.6,5.7,4.7,9.4,6.1c3.7,1.4,7.8,2.1,12.5,2.1c4.5,0,8.6-0.7,12.3-2.2c3.6-1.5,6.7-3.6,9.3-6.2s4.5-5.8,5.9-9.3
		c1.4-3.5,2-7.3,2-11.4c0-4.5-0.7-8.6-2.1-12.2C377.2,14,375.2,10.8,372.6,8.2z M360.8,47.7c-0.5,1.9-1.2,3.3-2.2,4.2
		c-1,1-2.2,1.4-3.6,1.4c-1.4,0-2.7-0.6-4.1-1.9c-1.4-1.3-2.7-3.1-3.9-5.3c-1.3-2.3-2.4-4.9-3.4-7.9c-1-3-1.8-6.2-2.3-9.6
		s-0.9-6.9-0.9-10.5c0-2.8,0.2-5.1,0.7-6.9c0.5-1.9,1.2-3.3,2.2-4.2c1-1,2.2-1.4,3.6-1.4c1.4,0,2.7,0.6,4.1,1.9
		c1.4,1.3,2.7,3.1,3.9,5.3c1.2,2.3,2.4,4.9,3.4,7.9c1,3,1.8,6.2,2.3,9.6c0.6,3.4,0.9,6.9,0.9,10.5C361.6,43.6,361.3,45.9,360.8,47.7
		z"/>
	<path class="st0" d="M473.9,51.8l-1.5-0.6c-0.7-0.2-1.1-0.6-1.4-1c-0.3-0.4-0.4-1.1-0.5-2.1L467.9,11c-0.1-0.9,0.1-1.6,0.3-2.1
		c0.3-0.5,0.8-0.8,1.7-1.1l1.5-0.6c0.6-0.2,1.1-0.6,1.5-1.1c0.4-0.5,0.5-1.1,0.5-1.9c0-0.9-0.3-1.5-0.8-2c-0.6-0.5-1.4-0.7-2.6-0.7
		h-15.5c-1.8,0-3.2,0.4-4.2,1.2c-1,0.8-1.9,2.2-2.7,4.2l-8.9,24.1l-9.5-24.3c-0.8-2.1-1.7-3.5-2.7-4.2c-1-0.7-2.3-1-4-1h-15.3
		c-2.3,0-3.4,0.9-3.4,2.7c0,0.7,0.2,1.4,0.5,1.8s0.9,0.9,1.6,1.1l1.5,0.6c0.9,0.3,1.4,0.8,1.7,1.6c0.3,0.7,0.4,1.9,0.2,3.4
		l-2.7,33.9c-0.1,1.3-0.5,2.2-1.1,2.9c-0.6,0.7-1.3,1.2-2.1,1.6l-0.8,0.4c-0.7,0.3-1.3,0.7-1.7,1.2c-0.4,0.4-0.6,1.1-0.6,1.9
		s0.3,1.5,0.8,2c0.5,0.5,1.4,0.7,2.6,0.7h11.8c1.2,0,2-0.3,2.6-0.8s0.8-1.2,0.8-2.1c0-0.6-0.1-1.1-0.4-1.5c-0.3-0.4-0.6-0.7-1.1-1
		l-1.1-0.6c-1-0.6-1.8-1.2-2.5-1.8c-0.7-0.7-0.9-1.6-0.8-2.9l2.1-26.5l12.3,31.1c0.6,1.5,1.2,2.7,1.8,3.4c0.6,0.7,1.2,1.2,1.8,1.3
		c0.7,0.2,1.4,0.3,2.2,0.3c1.1,0,2-0.3,2.8-0.8c0.8-0.6,1.5-1.8,2.3-3.9l11.7-31.5l2.1,28.1c0.1,0.9-0.1,1.5-0.3,2
		c-0.3,0.4-0.8,0.8-1.6,1.1l-1.6,0.6c-0.8,0.3-1.3,0.7-1.6,1.2c-0.3,0.5-0.5,1.1-0.5,1.8c0,0.8,0.3,1.5,0.8,2
		c0.6,0.5,1.4,0.7,2.6,0.7h22.3c1.2,0,2-0.3,2.6-0.8c0.6-0.5,0.8-1.2,0.8-2.1c0-0.7-0.2-1.3-0.5-1.8S474.5,52,473.9,51.8z"/>
	<path class="st0" d="M547.9,39.2c-0.4-0.7-1.1-1.1-2-1.3c-0.9-0.2-1.6-0.1-2.3,0.2c-0.7,0.3-1.2,0.9-1.6,1.7
		c-1.5,3.2-3,5.7-4.4,7.4c-1.4,1.7-2.8,2.9-4.4,3.5c-1.5,0.6-3.3,0.9-5.3,0.9H526c-1.5,0-2.7-0.4-3.5-1.2c-0.8-0.8-1.2-2-1.2-3.6
		v-15h4.2c1.4,0,2.5,0.1,3.4,0.4c0.9,0.2,1.6,0.7,2.4,1.3c0.7,0.6,1.5,1.6,2.3,2.8c0.5,0.7,1,1.1,1.7,1.3c0.7,0.2,1.3,0.1,2.1-0.1
		c0.8-0.3,1.3-0.7,1.5-1.3c0.3-0.6,0.3-1.3,0-2.3l-3.1-12.6c-0.4-1.6-1.3-2.4-2.7-2.4c-0.7,0-1.3,0.2-1.8,0.6
		c-0.5,0.4-0.9,1.1-1.2,2c-0.6,1.9-1.2,3.1-1.9,3.8c-0.7,0.7-1.9,1-3.5,1h-3.5v-19h5.4c1.4,0,2.7,0.1,3.8,0.4
		c1.1,0.3,2.2,0.8,3.2,1.6c1,0.7,2,1.8,3.1,3.1c1,1.3,2.1,3.1,3.2,5.2c0.5,0.9,1.1,1.5,1.9,1.9s1.6,0.3,2.6,0
		c0.8-0.3,1.4-0.8,1.7-1.4s0.3-1.4,0-2.4l-3.4-11.2c-0.5-1.5-1-2.6-1.6-3.3c-0.6-0.7-1.5-1-2.7-1c-0.9,0-1.7,0.1-2.5,0.4
		c-0.7,0.2-1.5,0.5-2.3,0.7c-0.8,0.2-1.8,0.4-3,0.4h-30.1c-1.2,0-2,0.2-2.6,0.7c-0.6,0.5-0.8,1.1-0.8,2c0,1.4,0.7,2.4,2.1,3l1.5,0.6
		c0.7,0.3,1.2,0.6,1.5,1c0.3,0.4,0.5,1,0.5,1.6v38.1c0,0.7-0.2,1.2-0.5,1.6c-0.3,0.4-0.8,0.8-1.5,1l-1.5,0.6c-1.4,0.5-2.1,1.5-2.1,3
		c0,0.8,0.3,1.5,0.8,2c0.6,0.5,1.4,0.7,2.6,0.7h31.8c1.2,0,2.2,0.1,3.1,0.4s1.6,0.5,2.2,0.7c0.7,0.2,1.4,0.4,2.3,0.4
		c1.3,0,2.3-0.4,2.9-1.1c0.6-0.7,1.1-1.8,1.6-3.3l3.7-12.8C548.4,40.7,548.3,39.9,547.9,39.2z"/>
</g>
<g>
	<g>
		<path d="M99.6-388.4l6.3,0.9l-10.5,33.7c-0.3,0.7-0.5,1.5-0.6,2.2c-0.1,0.7-0.2,1.5-0.2,2.5v1.6c0,0.9-0.2,1.5-0.7,1.9
			c-0.5,0.4-1.1,0.7-1.8,0.7H78.2c-0.7,0-1.4-0.2-1.9-0.7c-0.5-0.4-0.7-1.1-0.7-1.9v-1.6c0-0.5,0-1-0.1-1.4c-0.1-0.4-0.3-1.1-0.5-2
			l-11.7-39.1c-0.3-1-0.6-1.7-1-2.1c-0.4-0.4-0.9-0.8-1.6-1.1l-1.4-0.6c-0.6-0.2-1-0.6-1.3-1.1c-0.3-0.5-0.4-1-0.4-1.6
			c0-0.8,0.3-1.5,0.8-2c0.5-0.5,1.4-0.7,2.5-0.7h22.3c1.2,0,2,0.2,2.6,0.7c0.5,0.5,0.8,1.1,0.8,2c0,1.3-0.6,2.1-1.8,2.5l-1.3,0.4
			c-0.7,0.2-1.1,0.7-1.2,1.4c-0.1,0.7,0,1.7,0.3,2.9L93.4-354l-6,4.1L99.6-388.4z M127.9-398.1c0-0.9,0.3-1.5,0.8-2s1.4-0.7,2.6-0.7
			h11.8c1.2,0,2,0.2,2.6,0.7c0.5,0.5,0.8,1.1,0.8,2c0,0.6-0.1,1.1-0.4,1.5c-0.3,0.4-0.8,0.8-1.6,1.1l-1.1,0.6
			c-1,0.5-1.8,1.2-2.5,2.1c-0.7,0.9-1.2,2.2-1.7,4l-9.4,35c-0.3,1.2-0.5,2.1-0.6,2.7c-0.1,0.6-0.2,1.3-0.2,2.1v1.6
			c0,0.9-0.2,1.5-0.7,1.9c-0.5,0.4-1.1,0.7-1.8,0.7h-14.2c-0.7,0-1.3-0.2-1.8-0.7c-0.5-0.4-0.7-1.1-0.7-1.9v-1.6
			c0-0.5,0-0.9-0.1-1.3c-0.1-0.4-0.3-1.1-0.6-2.1l-11.1-39.1c-0.4-1.3-0.7-2.2-0.9-2.6c-0.3-0.4-0.6-0.7-1.1-0.9l-1.4-0.6
			c-0.6-0.3-1.1-0.6-1.3-1c-0.3-0.4-0.4-0.9-0.4-1.5c0-0.9,0.3-1.5,0.8-2c0.6-0.5,1.4-0.7,2.6-0.7h21.5c1.2,0,2,0.2,2.6,0.7
			c0.5,0.5,0.8,1.1,0.8,2c0,0.6-0.2,1.2-0.5,1.6c-0.3,0.4-0.8,0.8-1.5,1l-1.1,0.4c-0.6,0.2-1,0.6-1.2,1.2s-0.1,1.6,0.3,3l10.3,37
			l-5.5,4l11-39.8c0.4-1.3,0.4-2.4,0.1-3.4c-0.3-0.9-1.1-1.6-2.3-2.2l-1-0.4c-0.6-0.3-1-0.6-1.2-1
			C128.1-397,127.9-397.5,127.9-398.1z"/>
		<path d="M150.2-398.1c0-0.9,0.3-1.5,0.8-2s1.4-0.7,2.6-0.7h30.1c1.2,0,2.2-0.1,3-0.4s1.5-0.5,2.3-0.7c0.7-0.2,1.5-0.4,2.5-0.4
			c1.2,0,2.1,0.3,2.7,1s1.1,1.8,1.6,3.3l3.4,11.2c0.3,1,0.3,1.8,0,2.4c-0.3,0.6-0.9,1.1-1.7,1.4c-1,0.3-1.8,0.3-2.6,0
			s-1.4-1-1.9-1.9c-1.1-2.1-2.2-3.8-3.2-5.2c-1-1.3-2-2.4-3.1-3.1c-1-0.7-2.1-1.3-3.2-1.6c-1.1-0.3-2.4-0.4-3.8-0.4h-5.4v39.6
			c0,1.6,0.4,2.8,1.2,3.6c0.8,0.8,2,1.2,3.5,1.2h1.9c2,0,3.8-0.3,5.3-0.9c1.5-0.6,3-1.8,4.4-3.5c1.4-1.7,2.8-4.2,4.4-7.4
			c0.4-0.9,0.9-1.4,1.6-1.7c0.7-0.3,1.4-0.4,2.3-0.2c0.9,0.2,1.6,0.6,2,1.3c0.4,0.7,0.5,1.5,0.2,2.5l-3.7,12.8
			c-0.4,1.5-1,2.5-1.6,3.3c-0.6,0.7-1.6,1.1-2.9,1.1c-0.8,0-1.6-0.1-2.3-0.4c-0.7-0.2-1.4-0.5-2.2-0.7c-0.8-0.2-1.8-0.4-3.1-0.4
			h-31.8c-1.2,0-2-0.2-2.6-0.7c-0.6-0.5-0.8-1.1-0.8-2c0-1.4,0.7-2.4,2.1-3l1.5-0.6c0.7-0.3,1.2-0.6,1.5-1c0.3-0.4,0.5-1,0.5-1.6
			V-392c0-0.7-0.2-1.2-0.5-1.6c-0.3-0.4-0.8-0.8-1.5-1l-1.5-0.6C150.9-395.7,150.2-396.7,150.2-398.1z M167.3-376.1h10.5
			c1.6,0,2.8-0.3,3.5-1c0.7-0.7,1.3-1.9,1.9-3.8c0.3-0.9,0.7-1.6,1.2-2c0.5-0.4,1.1-0.6,1.8-0.6c1.4,0,2.3,0.8,2.7,2.4l3.1,12.6
			c0.2,1,0.2,1.8,0,2.3c-0.3,0.6-0.8,1-1.5,1.3c-0.7,0.3-1.4,0.3-2.1,0.1c-0.7-0.2-1.2-0.6-1.7-1.3c-0.9-1.2-1.6-2.2-2.3-2.8
			c-0.7-0.6-1.5-1.1-2.4-1.3c-0.9-0.2-2-0.4-3.4-0.4h-11.2V-376.1z"/>
		<path d="M233.1-395.2l-1.5,0.6c-0.7,0.3-1.2,0.6-1.5,1c-0.3,0.4-0.5,1-0.5,1.6v38.3c0,1.1,0.3,1.9,0.8,2.3
			c0.5,0.4,1.3,0.7,2.3,0.7h3.1c1.4,0,2.6-0.2,3.7-0.6c1.1-0.4,2-1.1,3-2.2c0.9-1.1,1.9-2.7,2.9-4.7l2.7-5.6c0.5-0.9,1-1.5,1.7-1.9
			c0.7-0.3,1.5-0.3,2.4-0.1c0.9,0.3,1.5,0.7,1.9,1.3c0.4,0.6,0.4,1.4,0.1,2.5l-4,14.1c-0.4,1.5-1,2.5-1.6,3.3s-1.6,1.1-2.9,1.1
			c-0.7,0-1.4-0.1-2.1-0.4c-0.7-0.2-1.5-0.5-2.3-0.7c-0.9-0.2-1.9-0.4-3.1-0.4h-29.2c-1.2,0-2-0.2-2.6-0.7c-0.6-0.5-0.8-1.1-0.8-2
			c0-1.4,0.7-2.4,2.1-3l1.5-0.6c0.7-0.3,1.2-0.6,1.5-1c0.3-0.4,0.5-1,0.5-1.6V-392c0-0.7-0.2-1.2-0.5-1.6c-0.3-0.4-0.8-0.8-1.5-1
			l-1.5-0.6c-1.4-0.5-2.1-1.5-2.1-3c0-0.9,0.3-1.5,0.8-2s1.4-0.7,2.6-0.7h22.9c1.2,0,2,0.2,2.6,0.7s0.8,1.1,0.8,2
			C235.1-396.7,234.5-395.7,233.1-395.2z"/>
		<path d="M310.3-361c0,2.1-0.6,4.2-1.7,6.3s-2.7,4-4.8,5.7c-2.1,1.7-4.6,3.1-7.5,4.1s-6.2,1.5-9.9,1.5c-6,0-11.1-1.2-15.5-3.7
			c-4.3-2.5-7.7-5.9-10.1-10.3c-2.4-4.4-3.6-9.5-3.6-15.2c0-4.3,0.7-8.2,2.1-11.8c1.4-3.6,3.4-6.8,5.9-9.5c2.5-2.7,5.5-4.8,8.9-6.3
			c3.4-1.5,7.1-2.2,11-2.2c2.5,0,4.5,0.2,6,0.6c1.5,0.4,2.8,0.9,3.7,1.3c0.9,0.4,1.7,0.7,2.4,0.7c0.8,0,1.4-0.2,1.9-0.6
			s1-0.8,1.5-1.2c0.5-0.4,1.2-0.6,2-0.6c0.7,0,1.2,0.2,1.7,0.6c0.4,0.4,0.8,1.1,1.1,2.2l4.1,14.1c0.2,0.8,0.1,1.6-0.3,2.2
			c-0.4,0.7-1.1,1.1-1.9,1.3c-0.9,0.2-1.7,0.2-2.5-0.2c-0.7-0.3-1.3-1-1.7-1.9c-1.4-3.2-2.8-5.7-4.5-7.4c-1.6-1.8-3.3-3-5.1-3.7
			c-1.8-0.7-3.6-1.1-5.4-1.1c-1.9,0-3.7,0.5-5.2,1.4c-1.5,0.9-2.8,2.3-3.9,4c-1.1,1.8-1.9,3.9-2.4,6.4c-0.6,2.5-0.8,5.3-0.8,8.4
			c0,5.1,0.7,9.3,2,12.7c1.4,3.4,3.2,5.9,5.6,7.6c2.4,1.7,5.2,2.5,8.4,2.5c2.8,0,5.3-0.7,7.6-2.1c2.3-1.4,4.2-3.5,5.7-6.3
			c0.5-0.9,0.9-1.4,1.5-1.7c0.5-0.3,1.1-0.3,1.8-0.2c0.6,0.1,1,0.4,1.3,0.8C310.2-362.2,310.3-361.7,310.3-361z"/>
		<path d="M344.5-402.4c4.7,0,8.8,0.7,12.5,2.1c3.7,1.4,6.8,3.5,9.4,6.1s4.6,5.8,5.9,9.4c1.4,3.7,2.1,7.7,2.1,12.2
			c0,4.1-0.7,7.9-2,11.4c-1.4,3.5-3.3,6.6-5.9,9.3s-5.6,4.7-9.3,6.2c-3.6,1.5-7.7,2.2-12.3,2.2c-4.6,0-8.8-0.7-12.5-2.1
			c-3.7-1.4-6.8-3.5-9.4-6.1c-2.6-2.6-4.6-5.8-5.9-9.4c-1.4-3.7-2.1-7.7-2.1-12.2c0-4.1,0.7-7.9,2-11.4c1.4-3.5,3.3-6.6,5.9-9.3
			c2.6-2.7,5.6-4.7,9.3-6.2C335.9-401.7,340-402.4,344.5-402.4z M355.4-361.6c0-3.6-0.3-7.1-0.9-10.5c-0.6-3.4-1.3-6.6-2.3-9.6
			c-1-3-2.1-5.6-3.4-7.9c-1.3-2.3-2.6-4-3.9-5.3c-1.4-1.3-2.7-1.9-4.1-1.9c-1.4,0-2.6,0.5-3.6,1.4c-1,1-1.7,2.4-2.2,4.2
			c-0.5,1.9-0.7,4.2-0.7,6.9c0,3.6,0.3,7.1,0.9,10.5c0.6,3.4,1.3,6.6,2.3,9.6c1,3,2.1,5.6,3.4,7.9c1.2,2.3,2.6,4,3.9,5.3
			c1.4,1.3,2.7,1.9,4.1,1.9c1.5,0,2.7-0.5,3.6-1.4c1-1,1.7-2.4,2.2-4.2C355.1-356.5,355.4-358.9,355.4-361.6z"/>
		<path d="M419.5-364.1l-5.8,0.8l11.9-32.2c0.8-2,1.7-3.5,2.7-4.2c1-0.8,2.4-1.2,4.2-1.2h15.5c1.2,0,2,0.2,2.6,0.7
			c0.6,0.5,0.8,1.1,0.8,2c0,0.7-0.2,1.4-0.5,1.9c-0.4,0.5-0.9,0.9-1.5,1.1l-1.5,0.6c-0.8,0.3-1.4,0.7-1.7,1.1
			c-0.3,0.5-0.4,1.1-0.3,2.1l2.5,37.2c0.1,1,0.2,1.7,0.5,2.1c0.3,0.4,0.8,0.7,1.4,1l1.5,0.6c0.6,0.2,1.1,0.6,1.4,1s0.5,1.1,0.5,1.8
			c0,0.8-0.3,1.5-0.8,2.1c-0.6,0.5-1.4,0.8-2.6,0.8h-22.3c-1.2,0-2.1-0.2-2.6-0.7c-0.6-0.5-0.8-1.1-0.8-2c0-0.7,0.2-1.3,0.5-1.8
			c0.3-0.5,0.8-0.9,1.6-1.2l1.6-0.6c0.8-0.3,1.3-0.7,1.6-1.1c0.3-0.4,0.4-1.1,0.3-2l-3-39.4l5.2-0.4l-16,43.3
			c-0.7,2-1.5,3.3-2.3,3.9c-0.8,0.6-1.7,0.8-2.8,0.8c-0.8,0-1.5-0.1-2.2-0.3c-0.7-0.2-1.3-0.6-1.8-1.3c-0.6-0.7-1.2-1.8-1.8-3.4
			l-16.4-41.5l5-0.9l-3,37.8c-0.1,1.3,0.2,2.2,0.8,2.9c0.7,0.7,1.5,1.3,2.5,1.8l1.1,0.6c0.5,0.2,0.8,0.6,1.1,1
			c0.3,0.4,0.4,0.9,0.4,1.5c0,0.9-0.3,1.5-0.8,2.1s-1.4,0.8-2.6,0.8h-11.8c-1.2,0-2-0.2-2.6-0.7c-0.5-0.5-0.8-1.1-0.8-2
			s0.2-1.5,0.6-1.9c0.4-0.4,1-0.8,1.7-1.2l0.8-0.4c0.8-0.4,1.5-0.9,2.1-1.6c0.6-0.7,1-1.7,1.1-2.9l2.7-33.9c0.1-1.6,0.1-2.7-0.2-3.4
			c-0.3-0.7-0.9-1.2-1.7-1.6l-1.5-0.6c-0.7-0.3-1.2-0.6-1.6-1.1s-0.5-1.1-0.5-1.8c0-1.8,1.1-2.7,3.4-2.7h15.3c1.6,0,3,0.3,4,1
			s1.9,2.1,2.7,4.2L419.5-364.1z"/>
		<path d="M459.1-398.1c0-0.9,0.3-1.5,0.8-2s1.4-0.7,2.6-0.7h30.1c1.2,0,2.2-0.1,3-0.4c0.8-0.2,1.5-0.5,2.3-0.7
			c0.7-0.2,1.5-0.4,2.5-0.4c1.2,0,2.1,0.3,2.7,1c0.6,0.7,1.1,1.8,1.6,3.3l3.4,11.2c0.3,1,0.3,1.8,0,2.4c-0.3,0.6-0.9,1.1-1.7,1.4
			c-1,0.3-1.8,0.3-2.6,0s-1.4-1-1.9-1.9c-1.1-2.1-2.2-3.8-3.2-5.2c-1-1.3-2-2.4-3.1-3.1c-1-0.7-2.1-1.3-3.2-1.6
			c-1.1-0.3-2.4-0.4-3.8-0.4h-5.4v39.6c0,1.6,0.4,2.8,1.2,3.6c0.8,0.8,2,1.2,3.5,1.2h1.9c2,0,3.8-0.3,5.3-0.9c1.5-0.6,3-1.8,4.4-3.5
			c1.4-1.7,2.8-4.2,4.4-7.4c0.4-0.9,0.9-1.4,1.6-1.7c0.7-0.3,1.4-0.4,2.3-0.2c0.9,0.2,1.6,0.6,2,1.3c0.4,0.7,0.5,1.5,0.2,2.5
			l-3.7,12.8c-0.4,1.5-1,2.5-1.6,3.3c-0.6,0.7-1.6,1.1-2.9,1.1c-0.8,0-1.6-0.1-2.3-0.4c-0.7-0.2-1.4-0.5-2.2-0.7s-1.8-0.4-3.1-0.4
			h-31.8c-1.2,0-2-0.2-2.6-0.7c-0.6-0.5-0.8-1.1-0.8-2c0-1.4,0.7-2.4,2.1-3l1.5-0.6c0.7-0.3,1.2-0.6,1.5-1c0.3-0.4,0.5-1,0.5-1.6
			V-392c0-0.7-0.2-1.2-0.5-1.6c-0.3-0.4-0.8-0.8-1.5-1l-1.5-0.6C459.8-395.7,459.1-396.7,459.1-398.1z M476.2-376.1h10.5
			c1.6,0,2.8-0.3,3.5-1c0.7-0.7,1.3-1.9,1.9-3.8c0.3-0.9,0.7-1.6,1.2-2c0.5-0.4,1.1-0.6,1.8-0.6c1.4,0,2.3,0.8,2.7,2.4l3.1,12.6
			c0.2,1,0.2,1.8,0,2.3c-0.3,0.6-0.8,1-1.5,1.3c-0.7,0.3-1.4,0.3-2.1,0.1c-0.7-0.2-1.2-0.6-1.7-1.3c-0.9-1.2-1.6-2.2-2.3-2.8
			c-0.7-0.6-1.5-1.1-2.4-1.3c-0.9-0.2-2-0.4-3.4-0.4h-11.2V-376.1z"/>
	</g>
</g>
<g>
	<g>
		<path d="M24.4-538l6.3,0.9l-10.5,33.7c-0.3,0.7-0.5,1.5-0.6,2.2c-0.1,0.7-0.2,1.5-0.2,2.5v1.6c0,0.9-0.2,1.5-0.7,1.9
			c-0.5,0.4-1.1,0.7-1.8,0.7H3c-0.7,0-1.4-0.2-1.9-0.7c-0.5-0.4-0.7-1.1-0.7-1.9v-1.6c0-0.5,0-1-0.1-1.4c-0.1-0.4-0.3-1.1-0.5-2
			l-11.7-39.1c-0.3-1-0.6-1.7-1-2.1c-0.4-0.4-0.9-0.8-1.6-1.1l-1.4-0.6c-0.6-0.2-1-0.6-1.3-1.1c-0.3-0.5-0.4-1-0.4-1.6
			c0-0.8,0.3-1.5,0.8-2c0.5-0.5,1.4-0.7,2.5-0.7H8.1c1.2,0,2,0.2,2.6,0.7c0.5,0.5,0.8,1.1,0.8,2c0,1.3-0.6,2.1-1.8,2.5l-1.3,0.4
			c-0.7,0.2-1.1,0.7-1.2,1.4c-0.1,0.7,0,1.7,0.3,2.9l10.8,36.9l-6,4.1L24.4-538z M52.8-547.7c0-0.9,0.3-1.5,0.8-2
			c0.6-0.5,1.4-0.7,2.6-0.7h11.8c1.2,0,2,0.2,2.6,0.7c0.5,0.5,0.8,1.1,0.8,2c0,0.6-0.1,1.1-0.4,1.5c-0.3,0.4-0.8,0.8-1.6,1.1
			l-1.1,0.6c-1,0.5-1.8,1.2-2.5,2.1c-0.7,0.9-1.2,2.2-1.7,4l-9.4,35c-0.3,1.2-0.5,2.1-0.6,2.7c-0.1,0.6-0.2,1.3-0.2,2.1v1.6
			c0,0.9-0.2,1.5-0.7,1.9c-0.5,0.4-1.1,0.7-1.8,0.7H37c-0.7,0-1.3-0.2-1.8-0.7c-0.5-0.4-0.7-1.1-0.7-1.9v-1.6c0-0.5,0-0.9-0.1-1.3
			c-0.1-0.4-0.3-1.1-0.6-2.1l-11.1-39.1c-0.4-1.3-0.7-2.2-0.9-2.6c-0.3-0.4-0.6-0.7-1.1-0.9l-1.4-0.6c-0.6-0.3-1.1-0.6-1.3-1
			c-0.3-0.4-0.4-0.9-0.4-1.5c0-0.9,0.3-1.5,0.8-2c0.6-0.5,1.4-0.7,2.6-0.7h21.5c1.2,0,2,0.2,2.6,0.7c0.5,0.5,0.8,1.1,0.8,2
			c0,0.6-0.2,1.2-0.5,1.6c-0.3,0.4-0.8,0.8-1.5,1l-1.1,0.4c-0.6,0.2-1,0.6-1.2,1.2c-0.2,0.6-0.1,1.6,0.3,3l10.3,37l-5.5,4l11-39.8
			c0.4-1.3,0.4-2.4,0.1-3.4c-0.3-0.9-1.1-1.6-2.3-2.2l-1-0.4c-0.6-0.3-1-0.6-1.2-1C52.9-546.6,52.8-547.1,52.8-547.7z"/>
		<path d="M91-547.7c0-0.9,0.3-1.5,0.8-2c0.6-0.5,1.4-0.7,2.6-0.7h30.1c1.2,0,2.2-0.1,3-0.4c0.8-0.2,1.5-0.5,2.3-0.7
			c0.7-0.2,1.5-0.4,2.5-0.4c1.2,0,2.1,0.3,2.7,1c0.6,0.7,1.1,1.8,1.6,3.3l3.4,11.2c0.3,1,0.3,1.8,0,2.4c-0.3,0.6-0.9,1.1-1.7,1.4
			c-1,0.3-1.8,0.3-2.6,0s-1.4-1-1.9-1.9c-1.1-2.1-2.2-3.8-3.2-5.2c-1-1.3-2-2.4-3.1-3.1c-1-0.7-2.1-1.3-3.2-1.6
			c-1.1-0.3-2.4-0.4-3.8-0.4h-5.4v39.6c0,1.6,0.4,2.8,1.2,3.6c0.8,0.8,2,1.2,3.5,1.2h1.9c2,0,3.8-0.3,5.3-0.9c1.5-0.6,3-1.8,4.4-3.5
			c1.4-1.7,2.8-4.2,4.4-7.4c0.4-0.9,0.9-1.4,1.6-1.7c0.7-0.3,1.4-0.4,2.3-0.2c0.9,0.2,1.6,0.6,2,1.3c0.4,0.7,0.5,1.5,0.2,2.5
			l-3.7,12.8c-0.4,1.5-1,2.5-1.6,3.3c-0.6,0.7-1.6,1.1-2.9,1.1c-0.8,0-1.6-0.1-2.3-0.4c-0.7-0.2-1.4-0.5-2.2-0.7
			c-0.8-0.2-1.8-0.4-3.1-0.4H94.4c-1.2,0-2-0.2-2.6-0.7c-0.6-0.5-0.8-1.1-0.8-2c0-1.4,0.7-2.4,2.1-3l1.5-0.6c0.7-0.3,1.2-0.6,1.5-1
			c0.3-0.4,0.5-1,0.5-1.6v-38.1c0-0.7-0.2-1.2-0.5-1.6c-0.3-0.4-0.8-0.8-1.5-1l-1.5-0.6C91.7-545.2,91-546.2,91-547.7z M108.1-525.7
			h10.5c1.6,0,2.8-0.3,3.5-1c0.7-0.7,1.3-1.9,1.9-3.8c0.3-0.9,0.7-1.6,1.2-2c0.5-0.4,1.1-0.6,1.8-0.6c1.4,0,2.3,0.8,2.7,2.4
			l3.1,12.6c0.2,1,0.2,1.8,0,2.3c-0.3,0.6-0.8,1-1.5,1.3c-0.7,0.3-1.4,0.3-2.1,0.1c-0.7-0.2-1.2-0.6-1.7-1.3
			c-0.9-1.2-1.6-2.2-2.3-2.8c-0.7-0.6-1.5-1.1-2.4-1.3c-0.9-0.2-2-0.4-3.4-0.4h-11.2V-525.7z"/>
		<path d="M189.8-544.7l-1.5,0.6c-0.7,0.3-1.2,0.6-1.5,1c-0.3,0.4-0.5,1-0.5,1.6v38.3c0,1.1,0.3,1.9,0.8,2.3
			c0.5,0.4,1.3,0.7,2.3,0.7h3.1c1.4,0,2.6-0.2,3.7-0.6c1.1-0.4,2-1.1,3-2.2c0.9-1.1,1.9-2.7,2.9-4.7l2.7-5.6c0.5-0.9,1-1.5,1.7-1.9
			c0.7-0.3,1.5-0.3,2.4-0.1c0.9,0.3,1.5,0.7,1.9,1.3c0.4,0.6,0.4,1.4,0.1,2.5l-4,14.1c-0.4,1.5-1,2.5-1.6,3.3s-1.6,1.1-2.9,1.1
			c-0.7,0-1.4-0.1-2.1-0.4c-0.7-0.2-1.5-0.5-2.3-0.7c-0.9-0.2-1.9-0.4-3.1-0.4h-29.2c-1.2,0-2-0.2-2.6-0.7c-0.6-0.5-0.8-1.1-0.8-2
			c0-1.4,0.7-2.4,2.1-3l1.5-0.6c0.7-0.3,1.2-0.6,1.5-1c0.3-0.4,0.5-1,0.5-1.6v-38.1c0-0.7-0.2-1.2-0.5-1.6c-0.3-0.4-0.8-0.8-1.5-1
			l-1.5-0.6c-1.4-0.5-2.1-1.5-2.1-3c0-0.9,0.3-1.5,0.8-2c0.6-0.5,1.4-0.7,2.6-0.7h22.9c1.2,0,2,0.2,2.6,0.7c0.6,0.5,0.8,1.1,0.8,2
			C191.9-546.2,191.2-545.2,189.8-544.7z"/>
		<path d="M283.1-510.5c0,2.1-0.6,4.2-1.7,6.3s-2.7,4-4.8,5.7c-2.1,1.7-4.6,3.1-7.5,4.1c-2.9,1-6.2,1.5-9.9,1.5
			c-6,0-11.1-1.2-15.5-3.7c-4.3-2.5-7.7-5.9-10.1-10.3c-2.4-4.4-3.6-9.5-3.6-15.2c0-4.3,0.7-8.2,2.1-11.8c1.4-3.6,3.4-6.8,5.9-9.5
			c2.5-2.7,5.5-4.8,8.9-6.3c3.4-1.5,7.1-2.2,11-2.2c2.5,0,4.5,0.2,6,0.6c1.5,0.4,2.8,0.9,3.7,1.3c0.9,0.4,1.7,0.7,2.4,0.7
			c0.8,0,1.4-0.2,1.9-0.6c0.5-0.4,1-0.8,1.5-1.2s1.2-0.6,2-0.6c0.7,0,1.2,0.2,1.7,0.6c0.4,0.4,0.8,1.1,1.1,2.2l4.1,14.1
			c0.2,0.8,0.1,1.6-0.3,2.2c-0.4,0.7-1.1,1.1-1.9,1.3c-0.9,0.2-1.7,0.2-2.5-0.2c-0.7-0.3-1.3-1-1.7-1.9c-1.4-3.2-2.8-5.7-4.5-7.4
			c-1.6-1.8-3.3-3-5.1-3.7c-1.8-0.7-3.6-1.1-5.4-1.1c-1.9,0-3.7,0.5-5.2,1.4c-1.5,0.9-2.8,2.3-3.9,4c-1.1,1.8-1.9,3.9-2.4,6.4
			c-0.6,2.5-0.8,5.3-0.8,8.4c0,5.1,0.7,9.3,2,12.7c1.4,3.4,3.2,5.9,5.6,7.6c2.4,1.7,5.2,2.5,8.4,2.5c2.8,0,5.3-0.7,7.6-2.1
			c2.3-1.4,4.2-3.5,5.7-6.3c0.5-0.9,0.9-1.4,1.5-1.7c0.5-0.3,1.1-0.3,1.8-0.2c0.6,0.1,1.1,0.4,1.3,0.8
			C282.9-511.7,283.1-511.2,283.1-510.5z"/>
		<path d="M333.2-552c4.7,0,8.8,0.7,12.5,2.1c3.7,1.4,6.8,3.5,9.4,6.1c2.6,2.6,4.6,5.8,5.9,9.4c1.4,3.7,2.1,7.7,2.1,12.2
			c0,4.1-0.7,7.9-2,11.4c-1.4,3.5-3.3,6.6-5.9,9.3s-5.6,4.7-9.3,6.2c-3.6,1.5-7.7,2.2-12.3,2.2c-4.6,0-8.8-0.7-12.5-2.1
			c-3.7-1.4-6.8-3.5-9.4-6.1c-2.6-2.6-4.6-5.8-5.9-9.4c-1.4-3.7-2.1-7.7-2.1-12.2c0-4.1,0.7-7.9,2-11.4c1.4-3.5,3.3-6.6,5.9-9.3
			c2.6-2.7,5.6-4.7,9.3-6.2C324.6-551.2,328.6-552,333.2-552z M344-511.2c0-3.6-0.3-7.1-0.9-10.5c-0.6-3.4-1.3-6.6-2.3-9.6
			c-1-3-2.1-5.6-3.4-7.9c-1.3-2.3-2.6-4-3.9-5.3c-1.4-1.3-2.7-1.9-4.1-1.9c-1.4,0-2.6,0.5-3.6,1.4c-1,1-1.7,2.4-2.2,4.2
			c-0.5,1.9-0.7,4.2-0.7,6.9c0,3.6,0.3,7.1,0.9,10.5c0.6,3.4,1.3,6.6,2.3,9.6c1,3,2.1,5.6,3.4,7.9c1.2,2.3,2.6,4,3.9,5.3
			c1.4,1.3,2.7,1.9,4.1,1.9c1.5,0,2.7-0.5,3.6-1.4c1-1,1.7-2.4,2.2-4.2C343.8-506.1,344-508.4,344-511.2z"/>
		<path d="M424.1-513.6l-5.8,0.8l11.9-32.2c0.8-2,1.7-3.5,2.7-4.2c1-0.8,2.4-1.2,4.2-1.2h15.5c1.2,0,2,0.2,2.6,0.7
			c0.6,0.5,0.8,1.1,0.8,2c0,0.7-0.2,1.4-0.5,1.9c-0.4,0.5-0.9,0.9-1.5,1.1l-1.5,0.6c-0.8,0.3-1.4,0.7-1.7,1.1
			c-0.3,0.5-0.4,1.1-0.3,2.1l2.5,37.2c0.1,1,0.2,1.7,0.5,2.1c0.3,0.4,0.8,0.7,1.4,1l1.5,0.6c0.6,0.2,1.1,0.6,1.4,1s0.5,1.1,0.5,1.8
			c0,0.8-0.3,1.5-0.8,2.1c-0.6,0.5-1.4,0.8-2.6,0.8h-22.3c-1.2,0-2.1-0.2-2.6-0.7c-0.6-0.5-0.8-1.1-0.8-2c0-0.7,0.2-1.3,0.5-1.8
			c0.3-0.5,0.8-0.9,1.6-1.2l1.6-0.6c0.8-0.3,1.3-0.7,1.6-1.1c0.3-0.4,0.4-1.1,0.3-2l-3-39.4l5.2-0.4l-16,43.3
			c-0.7,2-1.5,3.3-2.3,3.9c-0.8,0.6-1.7,0.8-2.8,0.8c-0.8,0-1.5-0.1-2.2-0.3c-0.7-0.2-1.3-0.6-1.8-1.3c-0.6-0.7-1.2-1.8-1.8-3.4
			l-16.4-41.5l5-0.9l-3,37.8c-0.1,1.3,0.2,2.2,0.8,2.9c0.7,0.7,1.5,1.3,2.5,1.8l1.1,0.6c0.5,0.2,0.8,0.6,1.1,1
			c0.3,0.4,0.4,0.9,0.4,1.5c0,0.9-0.3,1.5-0.8,2.1s-1.4,0.8-2.6,0.8h-11.8c-1.2,0-2-0.2-2.6-0.7c-0.5-0.5-0.8-1.1-0.8-2
			s0.2-1.5,0.6-1.9c0.4-0.4,1-0.8,1.7-1.2l0.8-0.4c0.8-0.4,1.5-0.9,2.1-1.6c0.6-0.7,1-1.7,1.1-2.9l2.7-33.9c0.1-1.6,0.1-2.7-0.2-3.4
			c-0.3-0.7-0.9-1.2-1.7-1.6l-1.5-0.6c-0.7-0.3-1.2-0.6-1.6-1.1s-0.5-1.1-0.5-1.8c0-1.8,1.1-2.7,3.4-2.7h15.3c1.6,0,3,0.3,4,1
			c1,0.7,1.9,2.1,2.7,4.2L424.1-513.6z"/>
		<path d="M479.7-547.7c0-0.9,0.3-1.5,0.8-2c0.6-0.5,1.4-0.7,2.6-0.7h30.1c1.2,0,2.2-0.1,3-0.4c0.8-0.2,1.5-0.5,2.3-0.7
			c0.7-0.2,1.5-0.4,2.5-0.4c1.2,0,2.1,0.3,2.7,1c0.6,0.7,1.1,1.8,1.6,3.3l3.4,11.2c0.3,1,0.3,1.8,0,2.4s-0.9,1.1-1.7,1.4
			c-1,0.3-1.8,0.3-2.6,0s-1.4-1-1.9-1.9c-1.1-2.1-2.2-3.8-3.2-5.2c-1-1.3-2-2.4-3.1-3.1c-1-0.7-2.1-1.3-3.2-1.6
			c-1.1-0.3-2.4-0.4-3.8-0.4h-5.4v39.6c0,1.6,0.4,2.8,1.2,3.6c0.8,0.8,2,1.2,3.5,1.2h1.9c2,0,3.8-0.3,5.3-0.9c1.5-0.6,3-1.8,4.4-3.5
			c1.4-1.7,2.8-4.2,4.4-7.4c0.4-0.9,0.9-1.4,1.6-1.7c0.7-0.3,1.4-0.4,2.3-0.2c0.9,0.2,1.6,0.6,2,1.3c0.4,0.7,0.5,1.5,0.2,2.5
			l-3.7,12.8c-0.4,1.5-1,2.5-1.6,3.3c-0.6,0.7-1.6,1.1-2.9,1.1c-0.8,0-1.6-0.1-2.3-0.4c-0.7-0.2-1.4-0.5-2.2-0.7s-1.8-0.4-3.1-0.4
			h-31.8c-1.2,0-2-0.2-2.6-0.7c-0.6-0.5-0.8-1.1-0.8-2c0-1.4,0.7-2.4,2.1-3l1.5-0.6c0.7-0.3,1.2-0.6,1.5-1c0.3-0.4,0.5-1,0.5-1.6
			v-38.1c0-0.7-0.2-1.2-0.5-1.6c-0.3-0.4-0.8-0.8-1.5-1l-1.5-0.6C480.4-545.2,479.7-546.2,479.7-547.7z M496.8-525.7h10.5
			c1.6,0,2.8-0.3,3.5-1c0.7-0.7,1.3-1.9,1.9-3.8c0.3-0.9,0.7-1.6,1.2-2c0.5-0.4,1.1-0.6,1.8-0.6c1.4,0,2.3,0.8,2.7,2.4l3.1,12.6
			c0.2,1,0.2,1.8,0,2.3c-0.3,0.6-0.8,1-1.5,1.3c-0.7,0.3-1.4,0.3-2.1,0.1c-0.7-0.2-1.2-0.6-1.7-1.3c-0.9-1.2-1.6-2.2-2.3-2.8
			c-0.7-0.6-1.5-1.1-2.4-1.3c-0.9-0.2-2-0.4-3.4-0.4h-11.2V-525.7z"/>
	</g>
</g>
</svg>
